# MagicaVoxel @ Ephtracy

# group
o 

# material
mtllib chr_knight.mtl
usemtl palette

# normals
vn -1 0 0
vn 1 0 0
vn 0 0 1
vn 0 0 -1
vn 0 -1 0
vn 0 1 0

# texcoords
vt 0.0175781 0.5
vt 0.0332031 0.5
vt 0.0371094 0.5
vt 0.228516 0.5
vt 0.537109 0.5
vt 0.693359 0.5
vt 0.869141 0.5
vt 0.982422 0.5
vt 0.994141 0.5

# verts
v -0.6 0.7 0
v -0.6 0.7 -0.1
v -0.6 0.8 0
v -0.6 0.8 -0.1
v -0.5 0.8 0
v -0.5 0.8 -0.1
v -0.5 0.9 0
v -0.5 0.9 -0.1
v -0.4 0.9 0
v -0.4 0.9 -0.1
v -0.4 1 0
v -0.4 1 -0.1
v -0.4 1.4 0.1
v -0.4 1.4 -0.2
v -0.4 1.5 0.1
v -0.4 1.5 -0.2
v -0.3 1 0.1
v -0.3 1 0
v -0.3 1 -0.1
v -0.3 1.1 0.1
v -0.3 1.1 -0.1
v -0.3 1.4 0.2
v -0.3 1.4 0.1
v -0.3 1.5 0.1
v -0.3 1.5 -0.2
v -0.3 1.5 -0.3
v -0.3 1.6 0.2
v -0.3 1.6 -0.3
v -0.2 0 0
v -0.2 0 -0.1
v -0.2 0.2 0
v -0.2 0.2 -0.1
v -0.2 0.7 0.1
v -0.2 0.7 0
v -0.2 0.7 -0.1
v -0.2 0.7 -0.2
v -0.2 1 0.1
v -0.2 1 -0.1
v -0.2 1.1 0.1
v -0.2 1.1 0
v -0.2 1.1 -0.1
v -0.2 1.1 -0.2
v -0.2 1.3 0.1
v -0.2 1.3 0
v -0.2 1.4 0.1
v -0.2 1.4 -0.2
v -0.2 1.4 -0.3
v -0.2 1.5 -0.2
v -0.2 1.5 -0.3
v -0.2 1.6 0.1
v -0.2 1.6 -0.2
v -0.2 1.8 0.1
v -0.2 1.8 -0.2
v -0.1 1.4 0.2
v -0.1 1.4 0.1
v -0.1 1.5 0.2
v -0.1 1.5 0.1
v 0.1 0 0
v 0.1 0 -0.1
v 0.1 0.2 0
v 0.1 0.2 -0.1
v 0.1 0.3 0
v 0.1 0.3 -0.1
v 0.1 0.5 0
v 0.1 0.5 -0.1
v 0.1 0.7 0
v 0.1 0.7 -0.1
v 0.1 1.4 0.2
v 0.1 1.4 0.1
v 0.1 1.5 0.2
v 0.1 1.5 0.1
v 0.3 0.9 0
v 0.3 0.9 -0.1
v 0.3 1 0
v 0.3 1 -0.1
v 0.4 0.8 0
v 0.4 0.8 -0.1
v 0.4 0.9 0
v 0.4 0.9 -0.1
v 0.5 0.7 0
v 0.5 0.7 -0.1
v 0.5 0.8 0
v 0.5 0.8 -0.1
v -0.5 0.7 0
v -0.5 0.7 -0.1
v -0.5 0.8 0
v -0.5 0.8 -0.1
v -0.4 0.8 0
v -0.4 0.8 -0.1
v -0.4 0.9 0
v -0.4 0.9 -0.1
v -0.3 0.9 0
v -0.3 0.9 -0.1
v -0.3 1 0
v -0.3 1 -0.1
v -0.2 1.4 0.2
v -0.2 1.4 0.1
v -0.2 1.5 0.2
v -0.2 1.5 0.1
v -0.1 0 0
v -0.1 0 -0.1
v -0.1 0.2 0
v -0.1 0.2 -0.1
v -0.1 0.7 0
v -0.1 0.7 -0.1
v 0 1.4 0.2
v 0 1.4 0.1
v 0 1.5 0.2
v 0 1.5 0.1
v 0.2 0 0
v 0.2 0 -0.1
v 0.2 0.2 0
v 0.2 0.2 -0.1
v 0.2 0.3 0
v 0.2 0.3 -0.1
v 0.2 0.5 0
v 0.2 0.5 -0.1
v 0.2 0.7 0.1
v 0.2 0.7 0
v 0.2 0.7 -0.1
v 0.2 0.7 -0.2
v 0.2 1 0.1
v 0.2 1 -0.1
v 0.2 1.1 0.1
v 0.2 1.1 0
v 0.2 1.1 -0.1
v 0.2 1.1 -0.2
v 0.2 1.3 0.1
v 0.2 1.3 0
v 0.2 1.4 0.1
v 0.2 1.4 -0.2
v 0.2 1.6 0.1
v 0.2 1.6 -0.2
v 0.2 1.8 0.1
v 0.2 1.8 -0.2
v 0.3 1 0.1
v 0.3 1 0
v 0.3 1 -0.1
v 0.3 1.1 0.1
v 0.3 1.1 -0.1
v 0.3 1.4 0.2
v 0.3 1.4 0.1
v 0.3 1.4 -0.2
v 0.3 1.4 -0.3
v 0.3 1.5 0.1
v 0.3 1.5 -0.2
v 0.3 1.6 0.2
v 0.3 1.6 -0.3
v 0.4 0.9 0
v 0.4 0.9 -0.1
v 0.4 1 0
v 0.4 1 -0.1
v 0.4 1.4 0.1
v 0.4 1.4 -0.2
v 0.4 1.5 0.1
v 0.4 1.5 -0.2
v 0.5 0.8 0
v 0.5 0.8 -0.1
v 0.5 0.9 0
v 0.5 0.9 -0.1
v 0.6 0.7 0
v 0.6 0.7 -0.1
v 0.6 0.8 0
v 0.6 0.8 -0.1
v -0.3 1.4 0.2
v -0.3 1.6 0.2
v -0.2 1.4 0.2
v -0.2 1.5 0.2
v -0.1 1.4 0.2
v -0.1 1.5 0.2
v 0 1.4 0.2
v 0 1.5 0.2
v 0.1 1.4 0.2
v 0.1 1.5 0.2
v 0.3 1.4 0.2
v 0.3 1.6 0.2
v -0.4 1.4 0.1
v -0.4 1.5 0.1
v -0.3 1 0.1
v -0.3 1.1 0.1
v -0.3 1.4 0.1
v -0.3 1.5 0.1
v -0.2 0.7 0.1
v -0.2 1 0.1
v -0.2 1.1 0.1
v -0.2 1.3 0.1
v -0.2 1.4 0.1
v -0.2 1.5 0.1
v -0.2 1.6 0.1
v -0.2 1.8 0.1
v -0.1 1 0.1
v -0.1 1.1 0.1
v -0.1 1.3 0.1
v -0.1 1.4 0.1
v -0.1 1.5 0.1
v 0 0.9 0.1
v 0 1 0.1
v 0 1.4 0.1
v 0 1.5 0.1
v 0.1 0.9 0.1
v 0.1 1.1 0.1
v 0.1 1.3 0.1
v 0.1 1.4 0.1
v 0.1 1.5 0.1
v 0.2 0.7 0.1
v 0.2 1 0.1
v 0.2 1.1 0.1
v 0.2 1.3 0.1
v 0.2 1.4 0.1
v 0.2 1.6 0.1
v 0.2 1.8 0.1
v 0.3 1 0.1
v 0.3 1.1 0.1
v 0.3 1.4 0.1
v 0.3 1.5 0.1
v 0.4 1.4 0.1
v 0.4 1.5 0.1
v -0.6 0.7 0
v -0.6 0.8 0
v -0.5 0.7 0
v -0.5 0.8 0
v -0.5 0.9 0
v -0.4 0.8 0
v -0.4 0.9 0
v -0.4 1 0
v -0.3 0.9 0
v -0.3 1 0
v -0.2 0 0
v -0.2 0.2 0
v -0.2 0.7 0
v -0.1 0 0
v -0.1 0.2 0
v -0.1 0.7 0
v 0.1 0 0
v 0.1 0.2 0
v 0.1 0.3 0
v 0.1 0.5 0
v 0.1 0.7 0
v 0.2 0 0
v 0.2 0.2 0
v 0.2 0.3 0
v 0.2 0.5 0
v 0.2 0.7 0
v 0.3 0.9 0
v 0.3 1 0
v 0.4 0.8 0
v 0.4 0.9 0
v 0.4 1 0
v 0.5 0.7 0
v 0.5 0.8 0
v 0.5 0.9 0
v 0.6 0.7 0
v 0.6 0.8 0
v -0.6 0.7 -0.1
v -0.6 0.8 -0.1
v -0.5 0.7 -0.1
v -0.5 0.8 -0.1
v -0.5 0.9 -0.1
v -0.4 0.8 -0.1
v -0.4 0.9 -0.1
v -0.4 1 -0.1
v -0.3 0.9 -0.1
v -0.3 1 -0.1
v -0.3 1.1 -0.1
v -0.2 0 -0.1
v -0.2 0.2 -0.1
v -0.2 0.7 -0.1
v -0.2 1 -0.1
v -0.2 1.1 -0.1
v -0.1 0 -0.1
v -0.1 0.2 -0.1
v -0.1 0.7 -0.1
v 0.1 0 -0.1
v 0.1 0.2 -0.1
v 0.1 0.3 -0.1
v 0.1 0.5 -0.1
v 0.1 0.7 -0.1
v 0.2 0 -0.1
v 0.2 0.2 -0.1
v 0.2 0.3 -0.1
v 0.2 0.5 -0.1
v 0.2 0.7 -0.1
v 0.2 1 -0.1
v 0.2 1.1 -0.1
v 0.3 0.9 -0.1
v 0.3 1 -0.1
v 0.3 1.1 -0.1
v 0.4 0.8 -0.1
v 0.4 0.9 -0.1
v 0.4 1 -0.1
v 0.5 0.7 -0.1
v 0.5 0.8 -0.1
v 0.5 0.9 -0.1
v 0.6 0.7 -0.1
v 0.6 0.8 -0.1
v -0.4 1.4 -0.2
v -0.4 1.5 -0.2
v -0.3 1.5 -0.2
v -0.2 0.7 -0.2
v -0.2 1.1 -0.2
v -0.2 1.4 -0.2
v -0.2 1.5 -0.2
v -0.2 1.6 -0.2
v -0.2 1.8 -0.2
v -0.1 1.6 -0.2
v -0.1 1.7 -0.2
v 0.1 1.4 -0.2
v 0.1 1.6 -0.2
v 0.1 1.7 -0.2
v 0.2 0.7 -0.2
v 0.2 1.1 -0.2
v 0.2 1.4 -0.2
v 0.2 1.6 -0.2
v 0.2 1.8 -0.2
v 0.3 1.4 -0.2
v 0.3 1.5 -0.2
v 0.4 1.4 -0.2
v 0.4 1.5 -0.2
v -0.3 1.5 -0.3
v -0.3 1.6 -0.3
v -0.2 1.4 -0.3
v -0.2 1.5 -0.3
v 0.1 1.4 -0.3
v 0.1 1.5 -0.3
v 0.2 1.4 -0.3
v 0.2 1.5 -0.3
v 0.3 1.4 -0.3
v 0.3 1.6 -0.3
v -0.2 0 0
v -0.1 0 0
v 0.1 0 0
v 0.2 0 0
v -0.2 0 -0.1
v -0.1 0 -0.1
v 0.1 0 -0.1
v 0.2 0 -0.1
v -0.2 0.7 0.1
v 0.2 0.7 0.1
v -0.6 0.7 0
v -0.5 0.7 0
v -0.2 0.7 0
v -0.1 0.7 0
v 0.1 0.7 0
v 0.2 0.7 0
v 0.5 0.7 0
v 0.6 0.7 0
v -0.6 0.7 -0.1
v -0.5 0.7 -0.1
v -0.2 0.7 -0.1
v -0.1 0.7 -0.1
v 0.1 0.7 -0.1
v 0.2 0.7 -0.1
v 0.5 0.7 -0.1
v 0.6 0.7 -0.1
v -0.2 0.7 -0.2
v 0.2 0.7 -0.2
v -0.5 0.8 0
v -0.4 0.8 0
v 0.4 0.8 0
v 0.5 0.8 0
v -0.5 0.8 -0.1
v -0.4 0.8 -0.1
v 0.4 0.8 -0.1
v 0.5 0.8 -0.1
v -0.4 0.9 0
v -0.3 0.9 0
v 0.3 0.9 0
v 0.4 0.9 0
v -0.4 0.9 -0.1
v -0.3 0.9 -0.1
v 0.3 0.9 -0.1
v 0.4 0.9 -0.1
v -0.3 1 0.1
v -0.2 1 0.1
v 0.2 1 0.1
v 0.3 1 0.1
v -0.3 1 0
v 0.3 1 0
v -0.3 1 -0.1
v -0.2 1 -0.1
v 0.2 1 -0.1
v 0.3 1 -0.1
v -0.3 1.4 0.2
v -0.2 1.4 0.2
v -0.1 1.4 0.2
v 0 1.4 0.2
v 0.1 1.4 0.2
v 0.3 1.4 0.2
v -0.4 1.4 0.1
v -0.3 1.4 0.1
v -0.2 1.4 0.1
v -0.1 1.4 0.1
v 0 1.4 0.1
v 0.1 1.4 0.1
v 0.2 1.4 0.1
v 0.3 1.4 0.1
v 0.4 1.4 0.1
v -0.4 1.4 -0.2
v -0.2 1.4 -0.2
v 0.1 1.4 -0.2
v 0.2 1.4 -0.2
v 0.3 1.4 -0.2
v 0.4 1.4 -0.2
v -0.2 1.4 -0.3
v 0.1 1.4 -0.3
v 0.2 1.4 -0.3
v 0.3 1.4 -0.3
v -0.2 1.5 0.2
v -0.1 1.5 0.2
v 0 1.5 0.2
v 0.1 1.5 0.2
v -0.2 1.5 0.1
v -0.1 1.5 0.1
v 0 1.5 0.1
v 0.1 1.5 0.1
v -0.3 1.5 -0.2
v -0.2 1.5 -0.2
v -0.3 1.5 -0.3
v -0.2 1.5 -0.3
v -0.6 0.8 0
v -0.5 0.8 0
v 0.5 0.8 0
v 0.6 0.8 0
v -0.6 0.8 -0.1
v -0.5 0.8 -0.1
v 0.5 0.8 -0.1
v 0.6 0.8 -0.1
v -0.5 0.9 0
v -0.4 0.9 0
v 0.4 0.9 0
v 0.5 0.9 0
v -0.5 0.9 -0.1
v -0.4 0.9 -0.1
v 0.4 0.9 -0.1
v 0.5 0.9 -0.1
v -0.4 1 0
v -0.3 1 0
v 0.3 1 0
v 0.4 1 0
v -0.4 1 -0.1
v -0.3 1 -0.1
v 0.3 1 -0.1
v 0.4 1 -0.1
v -0.3 1.1 0.1
v -0.2 1.1 0.1
v 0.2 1.1 0.1
v 0.3 1.1 0.1
v -0.2 1.1 0
v 0.2 1.1 0
v -0.3 1.1 -0.1
v -0.2 1.1 -0.1
v 0.2 1.1 -0.1
v 0.3 1.1 -0.1
v -0.4 1.5 0.1
v -0.3 1.5 0.1
v 0.3 1.5 0.1
v 0.4 1.5 0.1
v -0.4 1.5 -0.2
v -0.3 1.5 -0.2
v 0.3 1.5 -0.2
v 0.4 1.5 -0.2
v -0.3 1.6 0.2
v 0.3 1.6 0.2
v -0.2 1.6 0.1
v 0.2 1.6 0.1
v -0.2 1.6 -0.2
v -0.1 1.6 -0.2
v 0.1 1.6 -0.2
v 0.2 1.6 -0.2
v -0.3 1.6 -0.3
v 0.3 1.6 -0.3
v -0.2 1.8 0.1
v 0.2 1.8 0.1
v -0.2 1.8 -0.2
v 0.2 1.8 -0.2

# faces
f 3/2/1 2/2/1 1/2/1
f 4/2/1 2/2/1 3/2/1
f 7/2/1 6/2/1 5/2/1
f 8/2/1 6/2/1 7/2/1
f 11/2/1 10/2/1 9/2/1
f 12/2/1 10/2/1 11/2/1
f 15/3/1 14/3/1 13/3/1
f 16/3/1 14/3/1 15/3/1
f 20/8/1 18/8/1 17/8/1
f 20/8/1 19/8/1 18/8/1
f 21/8/1 19/8/1 20/8/1
f 24/3/1 23/3/1 22/3/1
f 27/3/1 24/3/1 22/3/1
f 27/3/1 26/3/1 25/3/1
f 27/3/1 25/3/1 24/3/1
f 28/3/1 26/3/1 27/3/1
f 31/5/1 30/5/1 29/5/1
f 32/5/1 30/5/1 31/5/1
f 34/6/1 32/6/1 31/6/1
f 35/6/1 32/6/1 34/6/1
f 37/8/1 35/8/1 34/8/1
f 37/8/1 36/8/1 35/8/1
f 37/8/1 34/8/1 33/8/1
f 38/8/1 36/8/1 37/8/1
f 41/8/1 36/8/1 38/8/1
f 42/8/1 36/8/1 41/8/1
f 43/2/1 40/2/1 39/2/1
f 44/9/1 41/9/1 40/9/1
f 44/2/1 40/2/1 43/2/1
f 44/9/1 42/9/1 41/9/1
f 45/9/1 44/9/1 43/9/1
f 46/9/1 42/9/1 44/9/1
f 46/9/1 44/9/1 45/9/1
f 48/3/1 47/3/1 46/3/1
f 49/3/1 47/3/1 48/3/1
f 52/3/1 51/3/1 50/3/1
f 53/3/1 51/3/1 52/3/1
f 56/3/1 55/3/1 54/3/1
f 57/3/1 55/3/1 56/3/1
f 60/5/1 59/5/1 58/5/1
f 61/5/1 59/5/1 60/5/1
f 62/6/1 61/6/1 60/6/1
f 63/6/1 61/6/1 62/6/1
f 64/2/1 63/2/1 62/2/1
f 65/2/1 63/2/1 64/2/1
f 66/6/1 65/6/1 64/6/1
f 67/6/1 65/6/1 66/6/1
f 70/3/1 69/3/1 68/3/1
f 71/3/1 69/3/1 70/3/1
f 74/2/1 73/2/1 72/2/1
f 75/2/1 73/2/1 74/2/1
f 78/2/1 77/2/1 76/2/1
f 79/2/1 77/2/1 78/2/1
f 82/2/1 81/2/1 80/2/1
f 83/2/1 81/2/1 82/2/1
f 84/2/2 85/2/2 86/2/2
f 86/2/2 85/2/2 87/2/2
f 88/2/2 89/2/2 90/2/2
f 90/2/2 89/2/2 91/2/2
f 92/2/2 93/2/2 94/2/2
f 94/2/2 93/2/2 95/2/2
f 96/3/2 97/3/2 98/3/2
f 98/3/2 97/3/2 99/3/2
f 100/5/2 101/5/2 102/5/2
f 102/5/2 101/5/2 103/5/2
f 102/6/2 103/6/2 104/6/2
f 104/6/2 103/6/2 105/6/2
f 106/3/2 107/3/2 108/3/2
f 108/3/2 107/3/2 109/3/2
f 110/5/2 111/5/2 112/5/2
f 112/5/2 111/5/2 113/5/2
f 112/6/2 113/6/2 114/6/2
f 114/6/2 113/6/2 115/6/2
f 114/2/2 115/2/2 116/2/2
f 116/2/2 115/2/2 117/2/2
f 116/6/2 117/6/2 119/6/2
f 119/6/2 117/6/2 120/6/2
f 119/8/2 120/8/2 122/8/2
f 120/8/2 121/8/2 122/8/2
f 118/8/2 119/8/2 122/8/2
f 122/8/2 121/8/2 123/8/2
f 123/8/2 121/8/2 126/8/2
f 126/8/2 121/8/2 127/8/2
f 124/2/2 125/2/2 128/2/2
f 125/9/2 126/9/2 129/9/2
f 128/2/2 125/2/2 129/2/2
f 126/9/2 127/9/2 129/9/2
f 128/9/2 129/9/2 130/9/2
f 129/9/2 127/9/2 131/9/2
f 130/9/2 129/9/2 131/9/2
f 132/3/2 133/3/2 134/3/2
f 134/3/2 133/3/2 135/3/2
f 136/8/2 137/8/2 139/8/2
f 137/8/2 138/8/2 139/8/2
f 139/8/2 138/8/2 140/8/2
f 141/3/2 142/3/2 145/3/2
f 143/3/2 144/3/2 146/3/2
f 141/3/2 145/3/2 147/3/2
f 145/3/2 146/3/2 147/3/2
f 146/3/2 144/3/2 148/3/2
f 147/3/2 146/3/2 148/3/2
f 149/2/2 150/2/2 151/2/2
f 151/2/2 150/2/2 152/2/2
f 153/3/2 154/3/2 155/3/2
f 155/3/2 154/3/2 156/3/2
f 157/2/2 158/2/2 159/2/2
f 159/2/2 158/2/2 160/2/2
f 161/2/2 162/2/2 163/2/2
f 163/2/2 162/2/2 164/2/2
f 167/3/3 166/3/3 165/3/3
f 168/3/3 166/3/3 167/3/3
f 170/3/3 166/3/3 168/3/3
f 171/3/3 170/3/3 169/3/3
f 172/3/3 166/3/3 170/3/3
f 172/3/3 170/3/3 171/3/3
f 174/3/3 166/3/3 172/3/3
f 175/3/3 174/3/3 173/3/3
f 176/3/3 166/3/3 174/3/3
f 176/3/3 174/3/3 175/3/3
f 181/3/3 178/3/3 177/3/3
f 182/3/3 178/3/3 181/3/3
f 184/8/3 180/8/3 179/8/3
f 185/8/3 180/8/3 184/8/3
f 191/8/3 184/8/3 183/8/3
f 191/8/3 185/8/3 184/8/3
f 192/2/3 186/2/3 185/2/3
f 192/8/3 185/8/3 191/8/3
f 193/9/3 187/9/3 186/9/3
f 193/2/3 186/2/3 192/2/3
f 194/3/3 188/3/3 187/3/3
f 194/9/3 187/9/3 193/9/3
f 195/3/3 188/3/3 194/3/3
f 196/8/3 191/8/3 183/8/3
f 197/2/3 193/2/3 192/2/3
f 197/8/3 191/8/3 196/8/3
f 197/2/3 192/2/3 191/2/3
f 197/2/3 194/2/3 193/2/3
f 198/2/3 194/2/3 197/2/3
f 200/8/3 196/8/3 183/8/3
f 200/2/3 197/2/3 196/2/3
f 200/2/3 198/2/3 197/2/3
f 201/2/3 198/2/3 200/2/3
f 202/2/3 198/2/3 201/2/3
f 203/3/3 199/3/3 198/3/3
f 203/2/3 198/2/3 202/2/3
f 204/3/3 199/3/3 203/3/3
f 205/8/3 200/8/3 183/8/3
f 205/8/3 201/8/3 200/8/3
f 206/8/3 201/8/3 205/8/3
f 207/2/3 202/2/3 201/2/3
f 207/8/3 201/8/3 206/8/3
f 208/9/3 203/9/3 202/9/3
f 208/2/3 202/2/3 207/2/3
f 209/9/3 203/9/3 208/9/3
f 210/3/3 190/3/3 189/3/3
f 211/3/3 190/3/3 210/3/3
f 212/8/3 207/8/3 206/8/3
f 213/8/3 207/8/3 212/8/3
f 216/3/3 215/3/3 214/3/3
f 217/3/3 215/3/3 216/3/3
f 220/2/3 219/2/3 218/2/3
f 221/2/3 219/2/3 220/2/3
f 223/2/3 222/2/3 221/2/3
f 224/2/3 222/2/3 223/2/3
f 226/2/3 225/2/3 224/2/3
f 227/2/3 225/2/3 226/2/3
f 231/5/3 229/5/3 228/5/3
f 232/6/3 230/6/3 229/6/3
f 232/5/3 229/5/3 231/5/3
f 233/6/3 230/6/3 232/6/3
f 239/5/3 235/5/3 234/5/3
f 240/6/3 236/6/3 235/6/3
f 240/5/3 235/5/3 239/5/3
f 241/2/3 237/2/3 236/2/3
f 241/6/3 236/6/3 240/6/3
f 242/6/3 238/6/3 237/6/3
f 242/2/3 237/2/3 241/2/3
f 243/6/3 238/6/3 242/6/3
f 247/2/3 245/2/3 244/2/3
f 248/2/3 245/2/3 247/2/3
f 250/2/3 247/2/3 246/2/3
f 251/2/3 247/2/3 250/2/3
f 252/2/3 250/2/3 249/2/3
f 253/2/3 250/2/3 252/2/3
f 254/2/4 255/2/4 256/2/4
f 256/2/4 255/2/4 257/2/4
f 257/2/4 258/2/4 259/2/4
f 259/2/4 258/2/4 260/2/4
f 260/2/4 261/2/4 262/2/4
f 262/2/4 261/2/4 263/2/4
f 263/8/4 264/8/4 268/8/4
f 268/8/4 264/8/4 269/8/4
f 265/5/4 266/5/4 270/5/4
f 266/6/4 267/6/4 271/6/4
f 270/5/4 266/5/4 271/5/4
f 271/6/4 267/6/4 272/6/4
f 273/5/4 274/5/4 278/5/4
f 274/6/4 275/6/4 279/6/4
f 278/5/4 274/5/4 279/5/4
f 275/2/4 276/2/4 280/2/4
f 279/6/4 275/6/4 280/6/4
f 276/6/4 277/6/4 281/6/4
f 280/2/4 276/2/4 281/2/4
f 281/6/4 277/6/4 282/6/4
f 283/8/4 284/8/4 286/8/4
f 286/8/4 284/8/4 287/8/4
f 285/2/4 286/2/4 289/2/4
f 289/2/4 286/2/4 290/2/4
f 288/2/4 289/2/4 292/2/4
f 292/2/4 289/2/4 293/2/4
f 291/2/4 292/2/4 294/2/4
f 294/2/4 292/2/4 295/2/4
f 296/3/4 297/3/4 298/3/4
f 296/3/4 298/3/4 301/3/4
f 301/3/4 298/3/4 302/3/4
f 303/3/4 304/3/4 305/3/4
f 305/3/4 304/3/4 306/3/4
f 300/9/4 301/9/4 307/9/4
f 305/7/4 306/7/4 308/7/4
f 306/3/4 304/3/4 309/3/4
f 308/7/4 306/7/4 309/7/4
f 299/8/4 300/8/4 310/8/4
f 300/9/4 307/9/4 311/9/4
f 310/8/4 300/8/4 311/8/4
f 311/9/4 307/9/4 312/9/4
f 308/3/4 309/3/4 313/3/4
f 309/3/4 304/3/4 314/3/4
f 313/3/4 309/3/4 314/3/4
f 315/3/4 316/3/4 317/3/4
f 317/3/4 316/3/4 318/3/4
f 319/3/4 320/3/4 322/3/4
f 321/3/4 322/3/4 323/3/4
f 322/3/4 320/3/4 324/3/4
f 323/3/4 322/3/4 324/3/4
f 323/9/4 324/9/4 325/9/4
f 324/3/4 320/3/4 326/3/4
f 325/9/4 324/9/4 326/9/4
f 325/3/4 326/3/4 327/3/4
f 326/3/4 320/3/4 328/3/4
f 327/3/4 326/3/4 328/3/4
f 333/5/5 330/5/5 329/5/5
f 334/5/5 330/5/5 333/5/5
f 335/5/5 332/5/5 331/5/5
f 336/5/5 332/5/5 335/5/5
f 341/8/5 338/8/5 337/8/5
f 342/8/5 338/8/5 341/8/5
f 343/8/5 338/8/5 342/8/5
f 344/8/5 338/8/5 343/8/5
f 347/2/5 340/2/5 339/2/5
f 348/2/5 340/2/5 347/2/5
f 350/6/5 343/6/5 342/6/5
f 351/6/5 343/6/5 350/6/5
f 353/2/5 346/2/5 345/2/5
f 354/2/5 346/2/5 353/2/5
f 355/8/5 352/8/5 351/8/5
f 355/8/5 350/8/5 349/8/5
f 355/8/5 351/8/5 350/8/5
f 356/8/5 352/8/5 355/8/5
f 361/2/5 358/2/5 357/2/5
f 362/2/5 358/2/5 361/2/5
f 363/2/5 360/2/5 359/2/5
f 364/2/5 360/2/5 363/2/5
f 369/2/5 366/2/5 365/2/5
f 370/2/5 366/2/5 369/2/5
f 371/2/5 368/2/5 367/2/5
f 372/2/5 368/2/5 371/2/5
f 377/8/5 374/8/5 373/8/5
f 378/8/5 376/8/5 375/8/5
f 379/8/5 374/8/5 377/8/5
f 380/8/5 374/8/5 379/8/5
f 381/8/5 378/8/5 375/8/5
f 382/8/5 378/8/5 381/8/5
f 390/3/5 384/3/5 383/3/5
f 391/3/5 384/3/5 390/3/5
f 392/3/5 386/3/5 385/3/5
f 393/3/5 386/3/5 392/3/5
f 394/3/5 388/3/5 387/3/5
f 395/3/5 388/3/5 394/3/5
f 396/3/5 388/3/5 395/3/5
f 398/3/5 391/3/5 390/3/5
f 398/3/5 390/3/5 389/3/5
f 399/3/5 391/3/5 398/3/5
f 401/3/5 397/3/5 396/3/5
f 401/3/5 396/3/5 395/3/5
f 402/3/5 397/3/5 401/3/5
f 403/3/5 397/3/5 402/3/5
f 404/3/5 400/3/5 399/3/5
f 405/9/5 401/9/5 400/9/5
f 405/3/5 400/3/5 404/3/5
f 406/3/5 402/3/5 401/3/5
f 406/9/5 401/9/5 405/9/5
f 407/3/5 402/3/5 406/3/5
f 412/3/5 409/3/5 408/3/5
f 413/3/5 409/3/5 412/3/5
f 414/3/5 411/3/5 410/3/5
f 415/3/5 411/3/5 414/3/5
f 418/3/5 417/3/5 416/3/5
f 419/3/5 417/3/5 418/3/5
f 420/2/6 421/2/6 424/2/6
f 424/2/6 421/2/6 425/2/6
f 422/2/6 423/2/6 426/2/6
f 426/2/6 423/2/6 427/2/6
f 428/2/6 429/2/6 432/2/6
f 432/2/6 429/2/6 433/2/6
f 430/2/6 431/2/6 434/2/6
f 434/2/6 431/2/6 435/2/6
f 436/2/6 437/2/6 440/2/6
f 440/2/6 437/2/6 441/2/6
f 438/2/6 439/2/6 442/2/6
f 442/2/6 439/2/6 443/2/6
f 444/8/6 445/8/6 448/8/6
f 446/8/6 447/8/6 449/8/6
f 444/8/6 448/8/6 450/8/6
f 450/8/6 448/8/6 451/8/6
f 449/8/6 447/8/6 452/8/6
f 452/8/6 447/8/6 453/8/6
f 454/3/6 455/3/6 458/3/6
f 458/3/6 455/3/6 459/3/6
f 456/3/6 457/3/6 460/3/6
f 460/3/6 457/3/6 461/3/6
f 462/3/6 463/3/6 464/3/6
f 464/3/6 463/3/6 465/3/6
f 462/3/6 464/3/6 466/3/6
f 465/3/6 463/3/6 469/3/6
f 467/3/6 468/3/6 470/3/6
f 468/3/6 469/3/6 470/3/6
f 462/3/6 466/3/6 470/3/6
f 466/3/6 467/3/6 470/3/6
f 469/3/6 463/3/6 471/3/6
f 470/3/6 469/3/6 471/3/6
f 472/3/6 473/3/6 474/3/6
f 474/3/6 473/3/6 475/3/6
